<svg xmlns="http://www.w3.org/2000/svg" width="1100" height="846" viewBox="0 0 1100 846" font-family="Malgun Gothic, sans-serif">
<rect width="100%" height="100%" fill="#ffffff"/>
<defs><marker id="ar" markerWidth="9" markerHeight="9" refX="8" refY="3" orient="auto"><path d="M0,0 L0,6 L8,3 z" fill="#555"/></marker></defs>
<text x="20" y="28" font-size="17" font-weight="bold" fill="#1f4e79">카드 기능</text>
<path d="M210.0,85.0 L280.0,82.5" fill="none" stroke="#555" stroke-width="1.3" marker-end="url(#ar)"/>
<path d="M135.0,110.0 V200.0 H355.0 V200.0 L355.0,290.0" fill="none" stroke="#555" stroke-width="1.3" marker-end="url(#ar)"/>
<path d="M135.0,110.0 V320.0 H355.0 V320.0 L355.0,530.0" fill="none" stroke="#555" stroke-width="1.3" marker-end="url(#ar)"/>
<path d="M135.0,110.0 V405.0 H355.0 V405.0 L355.0,700.0" fill="none" stroke="#555" stroke-width="1.3" marker-end="url(#ar)"/>
<path d="M430.0,82.5 V72.0 H500.0 V72.0 L500.0,61.5" fill="none" stroke="#555" stroke-width="1.3" marker-end="url(#ar)"/>
<path d="M430.0,82.5 V93.5 H500.0 V93.5 L500.0,104.5" fill="none" stroke="#555" stroke-width="1.3" marker-end="url(#ar)"/>
<path d="M355.0,105.0 V118.0 H615.0 V118.0 L615.0,131.0" fill="none" stroke="#555" stroke-width="1.3" marker-end="url(#ar)"/>
<path d="M355.0,105.0 V139.5 H615.0 V139.5 L615.0,174.0" fill="none" stroke="#555" stroke-width="1.3" marker-end="url(#ar)"/>
<path d="M355.0,105.0 V161.0 H615.0 V161.0 L615.0,217.0" fill="none" stroke="#555" stroke-width="1.3" marker-end="url(#ar)"/>
<path d="M430.0,312.5 V302.0 H500.0 V302.0 L500.0,291.5" fill="none" stroke="#555" stroke-width="1.3" marker-end="url(#ar)"/>
<path d="M430.0,312.5 V323.5 H500.0 V323.5 L500.0,334.5" fill="none" stroke="#555" stroke-width="1.3" marker-end="url(#ar)"/>
<path d="M355.0,335.0 V348.0 H615.0 V348.0 L615.0,361.0" fill="none" stroke="#555" stroke-width="1.3" marker-end="url(#ar)"/>
<path d="M355.0,335.0 V369.5 H615.0 V369.5 L615.0,404.0" fill="none" stroke="#555" stroke-width="1.3" marker-end="url(#ar)"/>
<path d="M355.0,335.0 V391.0 H615.0 V391.0 L615.0,447.0" fill="none" stroke="#555" stroke-width="1.3" marker-end="url(#ar)"/>
<path d="M355.0,335.0 V412.5 H615.0 V412.5 L615.0,490.0" fill="none" stroke="#555" stroke-width="1.3" marker-end="url(#ar)"/>
<path d="M430.0,552.5 V542.0 H500.0 V542.0 L500.0,531.5" fill="none" stroke="#555" stroke-width="1.3" marker-end="url(#ar)"/>
<path d="M430.0,552.5 V563.5 H500.0 V563.5 L500.0,574.5" fill="none" stroke="#555" stroke-width="1.3" marker-end="url(#ar)"/>
<path d="M355.0,575.0 V588.0 H615.0 V588.0 L615.0,601.0" fill="none" stroke="#555" stroke-width="1.3" marker-end="url(#ar)"/>
<path d="M355.0,575.0 V609.5 H615.0 V609.5 L615.0,644.0" fill="none" stroke="#555" stroke-width="1.3" marker-end="url(#ar)"/>
<path d="M355.0,575.0 V631.0 H615.0 V631.0 L615.0,687.0" fill="none" stroke="#555" stroke-width="1.3" marker-end="url(#ar)"/>
<path d="M430.0,722.5 V734.5 H500.0 V734.5 L500.0,746.5" fill="none" stroke="#555" stroke-width="1.3" marker-end="url(#ar)"/>
<path d="M355.0,745.0 V759.0 H615.0 V759.0 L615.0,773.0" fill="none" stroke="#555" stroke-width="1.3" marker-end="url(#ar)"/>
<rect x="60" y="60" width="150" height="50" rx="8" fill="#2e75b6" stroke="#333" stroke-width="1"/>
<text x="135.0" y="82.0" font-size="11" fill="#ffffff" text-anchor="middle" font-weight="bold">카드</text>
<text x="135.0" y="96.0" font-size="11" fill="#ffffff" text-anchor="middle">CardAgent</text>
<rect x="280" y="60" width="150" height="45" rx="2" fill="#bdd7ee" stroke="#333" stroke-width="1"/>
<text x="355.0" y="86.5" font-size="11" fill="#000000" text-anchor="middle">조회</text>
<rect x="280" y="290" width="150" height="45" rx="2" fill="#bdd7ee" stroke="#333" stroke-width="1"/>
<text x="355.0" y="316.5" font-size="11" fill="#000000" text-anchor="middle">결제</text>
<rect x="280" y="530" width="150" height="45" rx="2" fill="#bdd7ee" stroke="#333" stroke-width="1"/>
<text x="355.0" y="556.5" font-size="11" fill="#000000" text-anchor="middle">설정</text>
<rect x="280" y="700" width="150" height="45" rx="2" fill="#bdd7ee" stroke="#333" stroke-width="1"/>
<text x="355.0" y="726.5" font-size="11" fill="#000000" text-anchor="middle">재발급</text>
<rect x="500" y="45" width="230" height="33" rx="2" fill="#ffffff" stroke="#333" stroke-width="1"/>
<text x="615.0" y="65.5" font-size="11" fill="#000000" text-anchor="middle">은행별 카드 조회</text>
<rect x="500" y="88" width="230" height="33" rx="2" fill="#ffffff" stroke="#333" stroke-width="1"/>
<text x="615.0" y="108.5" font-size="11" fill="#000000" text-anchor="middle">결제 계좌 조회</text>
<rect x="500" y="131" width="230" height="33" rx="2" fill="#ffffff" stroke="#333" stroke-width="1"/>
<text x="615.0" y="151.5" font-size="11" fill="#000000" text-anchor="middle">실 카드 번호 조회 (전체)</text>
<rect x="500" y="174" width="230" height="33" rx="2" fill="#ffffff" stroke="#333" stroke-width="1"/>
<text x="615.0" y="194.5" font-size="11" fill="#000000" text-anchor="middle">멤버십 조회</text>
<rect x="500" y="217" width="230" height="33" rx="2" fill="#ffffff" stroke="#333" stroke-width="1"/>
<text x="615.0" y="237.5" font-size="11" fill="#000000" text-anchor="middle">이용 내역 조회</text>
<rect x="780" y="45" width="280" height="205" rx="2" fill="#f2f2f2" stroke="#333" stroke-width="1"/>
<text x="920.0" y="102.5" font-size="11" fill="#000000" text-anchor="middle" font-weight="bold">규칙</text>
<text x="920.0" y="116.5" font-size="11" fill="#000000" text-anchor="middle">조회 결과에 반드시 상태를 포함한다</text>
<text x="920.0" y="130.5" font-size="11" fill="#000000" text-anchor="middle">카드 번호는 마스킹하지 않는다</text>
<text x="920.0" y="144.5" font-size="11" fill="#000000" text-anchor="middle">(본인 인증을 거친 세션)</text>
<text x="920.0" y="158.5" font-size="11" fill="#000000" text-anchor="middle">인증 안 됐으면 인증 먼저</text>
<text x="920.0" y="172.5" font-size="11" fill="#000000" text-anchor="middle"></text>
<text x="920.0" y="186.5" font-size="11" fill="#000000" text-anchor="middle">이용 내역은 계좌 거래내역 함수를</text>
<text x="920.0" y="200.5" font-size="11" fill="#000000" text-anchor="middle">카드 필터만 추가해 재사용</text>
<rect x="500" y="275" width="230" height="33" rx="2" fill="#ffffff" stroke="#333" stroke-width="1"/>
<text x="615.0" y="295.5" font-size="11" fill="#000000" text-anchor="middle">요금 조회</text>
<rect x="500" y="318" width="230" height="33" rx="2" fill="#ffffff" stroke="#333" stroke-width="1"/>
<text x="615.0" y="338.5" font-size="11" fill="#000000" text-anchor="middle">명세서 조회</text>
<rect x="500" y="361" width="230" height="33" rx="2" fill="#ffffff" stroke="#333" stroke-width="1"/>
<text x="615.0" y="381.5" font-size="11" fill="#000000" text-anchor="middle">전체 결제</text>
<rect x="500" y="404" width="230" height="33" rx="2" fill="#ffffff" stroke="#333" stroke-width="1"/>
<text x="615.0" y="424.5" font-size="11" fill="#000000" text-anchor="middle">부분 결제 (금액 지정)</text>
<rect x="500" y="447" width="230" height="33" rx="2" fill="#ffffff" stroke="#333" stroke-width="1"/>
<text x="615.0" y="467.5" font-size="11" fill="#000000" text-anchor="middle">분할 결제 (할부)</text>
<rect x="500" y="490" width="230" height="33" rx="2" fill="#ffffff" stroke="#333" stroke-width="1"/>
<text x="615.0" y="510.5" font-size="11" fill="#000000" text-anchor="middle">일괄 결제 (여러 장)</text>
<rect x="780" y="275" width="280" height="248" rx="2" fill="#f2f2f2" stroke="#333" stroke-width="1"/>
<text x="920.0" y="326.0" font-size="11" fill="#000000" text-anchor="middle" font-weight="bold">결제 방식 4가지</text>
<text x="920.0" y="340.0" font-size="11" fill="#000000" text-anchor="middle">전체 : 총액 전부</text>
<text x="920.0" y="354.0" font-size="11" fill="#000000" text-anchor="middle">부분 : 지금 일부만 (회차 없음)</text>
<text x="920.0" y="368.0" font-size="11" fill="#000000" text-anchor="middle">분할 : 앞으로 N개월 (회차 생김)</text>
<text x="920.0" y="382.0" font-size="11" fill="#000000" text-anchor="middle">일괄 : 여러 장 한 번에</text>
<text x="920.0" y="396.0" font-size="11" fill="#000000" text-anchor="middle"></text>
<text x="920.0" y="410.0" font-size="11" fill="#000000" text-anchor="middle">저장 규칙</text>
<text x="920.0" y="424.0" font-size="11" fill="#000000" text-anchor="middle">전체·부분·분할 : 한 번에 저장</text>
<text x="920.0" y="438.0" font-size="11" fill="#000000" text-anchor="middle">  하나 실패하면 전부 롤백</text>
<text x="920.0" y="452.0" font-size="11" fill="#000000" text-anchor="middle">일괄 : 건별 저장</text>
<text x="920.0" y="466.0" font-size="11" fill="#000000" text-anchor="middle">  2건째 실패해도 1건째는 유지</text>
<text x="920.0" y="480.0" font-size="11" fill="#000000" text-anchor="middle">* 나눠 이체와 정확히 반대</text>
<rect x="500" y="515" width="230" height="33" rx="2" fill="#ffffff" stroke="#333" stroke-width="1"/>
<text x="615.0" y="535.5" font-size="11" fill="#000000" text-anchor="middle">카드 등록 / 해지</text>
<rect x="500" y="558" width="230" height="33" rx="2" fill="#ffffff" stroke="#333" stroke-width="1"/>
<text x="615.0" y="578.5" font-size="11" fill="#000000" text-anchor="middle">비밀번호 변경</text>
<rect x="500" y="601" width="230" height="33" rx="2" fill="#ffffff" stroke="#333" stroke-width="1"/>
<text x="615.0" y="621.5" font-size="11" fill="#000000" text-anchor="middle">분실 신고 (분실 및 정지)</text>
<rect x="500" y="644" width="230" height="33" rx="2" fill="#ffffff" stroke="#333" stroke-width="1"/>
<text x="615.0" y="664.5" font-size="11" fill="#000000" text-anchor="middle">일시 잠금 / 잠금 해제</text>
<rect x="500" y="687" width="230" height="33" rx="2" fill="#ffffff" stroke="#333" stroke-width="1"/>
<text x="615.0" y="707.5" font-size="11" fill="#000000" text-anchor="middle">별칭 변경</text>
<rect x="500" y="730" width="230" height="33" rx="2" fill="#ffffff" stroke="#333" stroke-width="1"/>
<text x="615.0" y="750.5" font-size="11" fill="#000000" text-anchor="middle">재발급 신청 / 신청 조회</text>
<rect x="500" y="773" width="230" height="33" rx="2" fill="#ffffff" stroke="#333" stroke-width="1"/>
<text x="615.0" y="793.5" font-size="11" fill="#000000" text-anchor="middle">배송지 수정 / 신청 취소</text>
<rect x="780" y="555" width="280" height="218" rx="2" fill="#f2f2f2" stroke="#333" stroke-width="1"/>
<text x="920.0" y="591.0" font-size="11" fill="#000000" text-anchor="middle" font-weight="bold">카드 상태</text>
<text x="920.0" y="605.0" font-size="11" fill="#000000" text-anchor="middle">active 사용가능 / locked 일시잠금</text>
<text x="920.0" y="619.0" font-size="11" fill="#000000" text-anchor="middle">lost 분실정지 / cancelled 해지</text>
<text x="920.0" y="633.0" font-size="11" fill="#000000" text-anchor="middle">* 분실·도난·부정사용은 모두 lost</text>
<text x="920.0" y="647.0" font-size="11" fill="#000000" text-anchor="middle">  사유만 따로 기록</text>
<text x="920.0" y="661.0" font-size="11" fill="#000000" text-anchor="middle"></text>
<text x="920.0" y="675.0" font-size="11" fill="#000000" text-anchor="middle">신청 상태</text>
<text x="920.0" y="689.0" font-size="11" fill="#000000" text-anchor="middle">received 접수 - 수정·취소 가능</text>
<text x="920.0" y="703.0" font-size="11" fill="#000000" text-anchor="middle">making 제작중 / shipping 배송중</text>
<text x="920.0" y="717.0" font-size="11" fill="#000000" text-anchor="middle">  - 수정·취소 불가</text>
<text x="920.0" y="731.0" font-size="11" fill="#000000" text-anchor="middle"></text>
<text x="920.0" y="745.0" font-size="11" fill="#000000" text-anchor="middle">정지 후 재발급은 승인을 따로 두 번 받는다</text>
</svg>