<svg xmlns="http://www.w3.org/2000/svg" width="1465" height="640" viewBox="0 0 1465 640" font-family="Malgun Gothic, sans-serif">
<rect width="100%" height="100%" fill="#ffffff"/>
<defs><marker id="ar" markerWidth="9" markerHeight="9" refX="8" refY="3" orient="auto"><path d="M0,0 L0,6 L8,3 z" fill="#555"/></marker></defs>
<text x="20" y="28" font-size="17" font-weight="bold" fill="#1f4e79">전체 구조 (3단 계층)</text>
<path d="M685.0,90.0 L685.0,120.0" fill="none" stroke="#555" stroke-width="1.3" marker-end="url(#ar)"/>
<path d="M685.0,175.0 V200.0 H332.0 V200.0 L332.0,225.0" fill="none" stroke="#555" stroke-width="1.3" marker-end="url(#ar)"/>
<path d="M685.0,175.0 V200.0 H1037.0 V200.0 L1037.0,225.0" fill="none" stroke="#555" stroke-width="1.3" marker-end="url(#ar)"/>
<path d="M332.0,280.0 V305.0 H142.5 V305.0 L142.5,330.0" fill="none" stroke="#555" stroke-width="1.3" marker-end="url(#ar)"/>
<path d="M332.0,280.0 L332.5,330.0" fill="none" stroke="#555" stroke-width="1.3" marker-end="url(#ar)"/>
<path d="M332.0,280.0 V305.0 H522.5 V305.0 L522.5,330.0" fill="none" stroke="#555" stroke-width="1.3" marker-end="url(#ar)"/>
<path d="M1037.0,280.0 V305.0 H752.5 V305.0 L752.5,330.0" fill="none" stroke="#555" stroke-width="1.3" marker-end="url(#ar)"/>
<path d="M1037.0,280.0 V305.0 H942.5 V305.0 L942.5,330.0" fill="none" stroke="#555" stroke-width="1.3" marker-end="url(#ar)"/>
<path d="M1037.0,280.0 V305.0 H1132.5 V305.0 L1132.5,330.0" fill="none" stroke="#555" stroke-width="1.3" marker-end="url(#ar)"/>
<path d="M1037.0,280.0 V305.0 H1322.5 V305.0 L1322.5,330.0" fill="none" stroke="#555" stroke-width="1.3" marker-end="url(#ar)"/>
<path d="M202.0,252.5 H157.0 V147.5 H505.0" fill="none" stroke="#555" stroke-width="1.3" marker-end="url(#ar)" stroke-dasharray="5,4"/>
<text x="157.0" y="197.0" font-size="10" fill="#c00" text-anchor="middle">도메인 아니면 반송</text>
<path d="M1187.0,252.5 H1232.0 V147.5 H865.0" fill="none" stroke="#555" stroke-width="1.3" marker-end="url(#ar)" stroke-dasharray="5,4"/>
<text x="1232.0" y="197.0" font-size="10" fill="#c00" text-anchor="middle">도메인 아니면 반송</text>
<rect x="585" y="50" width="200" height="40" rx="2" fill="#f2f2f2" stroke="#333" stroke-width="1"/>
<text x="685.0" y="74.0" font-size="11" fill="#000000" text-anchor="middle">입력 (자연어)</text>
<rect x="505" y="120" width="360" height="55" rx="8" fill="#1f4e79" stroke="#333" stroke-width="1"/>
<text x="685.0" y="144.5" font-size="11" fill="#ffffff" text-anchor="middle" font-weight="bold">Virtual_Bank_Supervisor_Agent</text>
<text x="685.0" y="158.5" font-size="11" fill="#ffffff" text-anchor="middle">1단 분류 : 계좌 / 카드</text>
<rect x="202" y="225" width="260" height="55" rx="8" fill="#2e75b6" stroke="#333" stroke-width="1"/>
<text x="332.0" y="249.5" font-size="11" fill="#ffffff" text-anchor="middle" font-weight="bold">AccountAgent</text>
<text x="332.0" y="263.5" font-size="11" fill="#ffffff" text-anchor="middle">2단 : 이체 / 조회 / 설정</text>
<rect x="887" y="225" width="300" height="55" rx="8" fill="#2e75b6" stroke="#333" stroke-width="1"/>
<text x="1037.0" y="249.5" font-size="11" fill="#ffffff" text-anchor="middle" font-weight="bold">CardAgent</text>
<text x="1037.0" y="263.5" font-size="11" fill="#ffffff" text-anchor="middle">2단 : 조회 / 결제 / 설정 / 재발급</text>
<rect x="50" y="330" width="185" height="75" rx="2" fill="#bdd7ee" stroke="#333" stroke-width="1"/>
<text x="142.5" y="357.5" font-size="11" fill="#000000" text-anchor="middle" font-weight="bold">TransferAgent</text>
<text x="142.5" y="371.5" font-size="11" fill="#000000" text-anchor="middle">3단 : 즉시 / 조건부 / 나눔</text>
<text x="142.5" y="385.5" font-size="11" fill="#000000" text-anchor="middle">+ 본인·타인 / 자행·타행 / 예약</text>
<rect x="240" y="330" width="185" height="75" rx="2" fill="#bdd7ee" stroke="#333" stroke-width="1"/>
<text x="332.5" y="357.5" font-size="11" fill="#000000" text-anchor="middle" font-weight="bold">AccountQueryAgent</text>
<text x="332.5" y="371.5" font-size="11" fill="#000000" text-anchor="middle">3단 : 계좌목록 / 총액</text>
<text x="332.5" y="385.5" font-size="11" fill="#000000" text-anchor="middle">/ 거래내역</text>
<rect x="430" y="330" width="185" height="75" rx="2" fill="#bdd7ee" stroke="#333" stroke-width="1"/>
<text x="522.5" y="357.5" font-size="11" fill="#000000" text-anchor="middle" font-weight="bold">AccountSettingAgent</text>
<text x="522.5" y="371.5" font-size="11" fill="#000000" text-anchor="middle">3단 : 이름 / 용도</text>
<text x="522.5" y="385.5" font-size="11" fill="#000000" text-anchor="middle">/ 계좌등록</text>
<rect x="660" y="330" width="185" height="75" rx="2" fill="#bdd7ee" stroke="#333" stroke-width="1"/>
<text x="752.5" y="357.5" font-size="11" fill="#000000" text-anchor="middle" font-weight="bold">CardQueryAgent</text>
<text x="752.5" y="371.5" font-size="11" fill="#000000" text-anchor="middle">3단 : 카드목록 / 결제계좌</text>
<text x="752.5" y="385.5" font-size="11" fill="#000000" text-anchor="middle">/ 카드번호 / 멤버십 / 이용내역</text>
<rect x="850" y="330" width="185" height="75" rx="2" fill="#bdd7ee" stroke="#333" stroke-width="1"/>
<text x="942.5" y="357.5" font-size="11" fill="#000000" text-anchor="middle" font-weight="bold">CardBillingAgent</text>
<text x="942.5" y="371.5" font-size="11" fill="#000000" text-anchor="middle">3단 : 요금조회 / 명세서</text>
<text x="942.5" y="385.5" font-size="11" fill="#000000" text-anchor="middle">/ 전체·부분·분할·일괄 결제</text>
<rect x="1040" y="330" width="185" height="75" rx="2" fill="#bdd7ee" stroke="#333" stroke-width="1"/>
<text x="1132.5" y="357.5" font-size="11" fill="#000000" text-anchor="middle" font-weight="bold">CardSettingAgent</text>
<text x="1132.5" y="371.5" font-size="11" fill="#000000" text-anchor="middle">3단 : 등록·해지 / 비밀번호</text>
<text x="1132.5" y="385.5" font-size="11" fill="#000000" text-anchor="middle">/ 분실신고 / 잠금·해제 / 별칭</text>
<rect x="1230" y="330" width="185" height="75" rx="2" fill="#bdd7ee" stroke="#333" stroke-width="1"/>
<text x="1322.5" y="357.5" font-size="11" fill="#000000" text-anchor="middle" font-weight="bold">CardReissueAgent</text>
<text x="1322.5" y="371.5" font-size="11" fill="#000000" text-anchor="middle">3단 : 신청 / 신청조회</text>
<text x="1322.5" y="385.5" font-size="11" fill="#000000" text-anchor="middle">/ 배송지수정 / 취소</text>
<rect x="50" y="455" width="1365" height="95" rx="2" fill="#fff2cc" stroke="#333" stroke-width="1"/>
<text x="732.5" y="485.5" font-size="11" fill="#000000" text-anchor="middle" font-weight="bold">공통 노드  (supervisor의 라우팅 대상이 아니다. 위 모든 업무 흐름 중간에 끼어든다)</text>
<text x="732.5" y="499.5" font-size="11" fill="#000000" text-anchor="middle">승인 대기 판정 · 맥락 확인 · 사용자 확인 · 대상 해소 · 인증 · 부족 정보 질문 · 처리안 제시 · 승인(interrupt)</text>
<text x="732.5" y="513.5" font-size="11" fill="#000000" text-anchor="middle">응답 해석 · 승인 전 수정 · 실행 직전 재검증 · 불가 안내 · 저장 · 결과 안내 · 처리 기록 · 후속 결과 조회</text>
<text x="732.5" y="527.5" font-size="11" fill="#000000" text-anchor="middle">오류/복구 · 도메인 반송 · 후속 업무 이어가기</text>
</svg>